<svg width="16" height="16" viewBox="0 0 16 16" fill="none" xmlns="http://www.w3.org/2000/svg">
<path opacity="0.4" d="M15.1673 14.6667C15.1673 14.9401 14.9406 15.1667 14.6673 15.1667H1.33398C1.06065 15.1667 0.833984 14.9401 0.833984 14.6667C0.833984 14.3934 1.06065 14.1667 1.33398 14.1667H14.6673C14.9406 14.1667 15.1673 14.3934 15.1673 14.6667Z" fill="#01C38D"/>
<path d="M14 10V14.1667H2V10C2 6.68667 4.68667 4 8 4C11.3133 4 14 6.68667 14 10Z" fill="#01C38D"/>
<path opacity="0.4" d="M8 2.49992C7.72667 2.49992 7.5 2.27325 7.5 1.99992V1.33325C7.5 1.05992 7.72667 0.833252 8 0.833252C8.27333 0.833252 8.5 1.05992 8.5 1.33325V1.99992C8.5 2.27325 8.27333 2.49992 8 2.49992Z" fill="#01C38D"/>
<path opacity="0.4" d="M3.33297 3.83346C3.2063 3.83346 3.07964 3.78679 2.97964 3.68679L2.31297 3.02012C2.11964 2.82679 2.11964 2.50679 2.31297 2.31346C2.5063 2.12012 2.8263 2.12012 3.01963 2.31346L3.6863 2.98012C3.87963 3.17346 3.87963 3.49346 3.6863 3.68679C3.5863 3.78679 3.45963 3.83346 3.33297 3.83346Z" fill="#01C38D"/>
<path opacity="0.4" d="M12.6663 3.83346C12.5396 3.83346 12.413 3.78679 12.313 3.68679C12.1196 3.49346 12.1196 3.17346 12.313 2.98012L12.9796 2.31346C13.173 2.12012 13.493 2.12012 13.6863 2.31346C13.8796 2.50679 13.8796 2.82679 13.6863 3.02012L13.0196 3.68679C12.9196 3.78679 12.793 3.83346 12.6663 3.83346Z" fill="#01C38D"/>
</svg>
