<svg width="44" height="44" viewBox="0 0 44 44" fill="none" xmlns="http://www.w3.org/2000/svg">
<rect width="44" height="44" rx="22" fill="#01C38D"/>
<path d="M21.6236 17.2221C20.7476 17.2221 19.3916 16.2261 17.9636 16.2621C16.0796 16.2861 14.3516 17.3541 13.3796 19.0461C11.4236 22.4421 12.8756 27.4581 14.7836 30.2181C15.7196 31.5621 16.8236 33.0741 18.2876 33.0261C19.6916 32.9661 20.2196 32.1141 21.9236 32.1141C23.6156 32.1141 24.0956 33.0261 25.5836 32.9901C27.0956 32.9661 28.0556 31.6221 28.9796 30.2661C30.0476 28.7061 30.4916 27.1941 30.5156 27.1101C30.4796 27.0981 27.5756 25.9821 27.5396 22.6221C27.5156 19.8141 29.8316 18.4701 29.9396 18.4101C28.6196 16.4781 26.5916 16.2621 25.8836 16.2141C24.0356 16.0701 22.4876 17.2221 21.6236 17.2221V17.2221ZM24.7436 14.3901C25.5236 13.4541 26.0396 12.1461 25.8956 10.8501C24.7796 10.8981 23.4356 11.5941 22.6316 12.5301C21.9116 13.3581 21.2876 14.6901 21.4556 15.9621C22.6916 16.0581 23.9636 15.3261 24.7436 14.3901V14.3901Z" fill="white"/>
</svg>
