<svg width="16" height="16" viewBox="0 0 16 16" fill="none" xmlns="http://www.w3.org/2000/svg">
    <g clip-path="url(#clip0_45_3936)">
        <path
            d="M11.2004 7.99999C11.2004 8.46665 11.0204 8.93332 10.6671 9.28665L6.32042 13.6333C6.12708 13.8267 5.80708 13.8267 5.61375 13.6333C5.42042 13.44 5.42042 13.12 5.61375 12.9267L9.96042 8.57999C10.2804 8.25999 10.2804 7.73999 9.96042 7.41999L5.61375 3.07332C5.42042 2.87999 5.42042 2.55999 5.61375 2.36665C5.80708 2.17332 6.12708 2.17332 6.32042 2.36665L10.6671 6.71332C11.0204 7.06665 11.2004 7.53332 11.2004 7.99999Z"
            fill="#01C38D" />
    </g>
    <defs>
        <clipPath id="clip0_45_3936">
            <rect width="16" height="16" fill="white" transform="matrix(0 -1 1 0 0 16)" />
        </clipPath>
    </defs>
</svg>