<svg width="15" height="16" viewBox="0 0 15 16" fill="none" xmlns="http://www.w3.org/2000/svg">
<path d="M10.8075 7.04155C10.5484 7.04155 10.3435 6.83061 10.3435 6.57749C10.3435 6.3545 10.1205 5.89043 9.74683 5.48664C9.37919 5.09489 8.97539 4.86587 8.63789 4.86587C8.37874 4.86587 8.17383 4.65494 8.17383 4.40181C8.17383 4.14868 8.38477 3.93774 8.63789 3.93774C9.24057 3.93774 9.87339 4.26319 10.4279 4.84779C10.9462 5.39623 11.2776 6.07726 11.2776 6.57146C11.2776 6.83062 11.0667 7.04155 10.8075 7.04155Z" fill="#E82020"/>
<path d="M12.9831 7.04153C12.7239 7.04153 12.519 6.83059 12.519 6.57746C12.519 4.43795 10.7772 2.70222 8.64375 2.70222C8.3846 2.70222 8.17969 2.49128 8.17969 2.23816C8.17969 1.98503 8.3846 1.76807 8.63773 1.76807C11.2895 1.76807 13.4471 3.92567 13.4471 6.57746C13.4471 6.83059 13.2362 7.04153 12.9831 7.04153Z" fill="#E82020"/>
<path opacity="0.4" d="M7.29429 9.12681L5.32353 11.0976C5.10656 10.9047 4.89562 10.7058 4.69071 10.5009C4.06995 9.87413 3.50945 9.21721 3.00923 8.53015C2.51503 7.8431 2.11726 7.15604 1.82797 6.47501C1.53869 5.78795 1.39404 5.13103 1.39404 4.50424C1.39404 4.09442 1.46636 3.70267 1.61101 3.34107C1.75565 2.97343 1.98467 2.63593 2.30409 2.33459C2.68981 1.9549 3.11169 1.76807 3.55767 1.76807C3.72642 1.76807 3.89517 1.80423 4.04584 1.87655C4.20254 1.94887 4.34116 2.05735 4.44964 2.21405L5.84786 4.18482C5.95634 4.33549 6.03469 4.47411 6.08893 4.6067C6.14317 4.73326 6.17331 4.85982 6.17331 4.97433C6.17331 5.11898 6.13112 5.26362 6.04674 5.40224C5.9684 5.54085 5.85389 5.6855 5.70924 5.83014L5.2512 6.30626C5.18491 6.37255 5.15478 6.4509 5.15478 6.54733C5.15478 6.59555 5.1608 6.63773 5.17286 6.68595C5.19094 6.73416 5.20902 6.77032 5.22107 6.80648C5.32955 7.00537 5.51638 7.26452 5.78156 7.57792C6.05277 7.89131 6.34206 8.21073 6.65545 8.53015C6.87242 8.74109 7.08336 8.946 7.29429 9.12681Z" fill="#E82020"/>
<path d="M13.4293 11.6099C13.4293 11.7787 13.3992 11.9534 13.3389 12.1222C13.3208 12.1704 13.3027 12.2186 13.2786 12.2668C13.1762 12.4838 13.0436 12.6887 12.8688 12.8816C12.5735 13.207 12.248 13.4421 11.8804 13.5927C11.8744 13.5927 11.8683 13.5988 11.8623 13.5988C11.5067 13.7434 11.121 13.8218 10.7052 13.8218C10.0904 13.8218 9.43351 13.6771 8.74043 13.3818C8.04734 13.0865 7.35426 12.6887 6.6672 12.1885C6.43216 12.0137 6.19711 11.8389 5.97412 11.6521L7.94489 9.68134C8.11364 9.8079 8.26431 9.90433 8.39087 9.97062C8.42101 9.98268 8.45717 10.0008 8.49936 10.0188C8.54757 10.0369 8.59579 10.0429 8.65003 10.0429C8.75248 10.0429 8.83083 10.0068 8.89713 9.94049L9.35516 9.48848C9.50583 9.33781 9.65048 9.2233 9.78909 9.15098C9.92771 9.0666 10.0663 9.02441 10.217 9.02441C10.3315 9.02441 10.452 9.04852 10.5846 9.10276C10.7172 9.157 10.8558 9.23535 11.0065 9.33781L13.0014 10.7541C13.1581 10.8626 13.2666 10.9892 13.3329 11.1398C13.3931 11.2905 13.4293 11.4412 13.4293 11.6099Z" fill="#E82020"/>
</svg>
