<svg width="38" height="38" viewBox="0 0 38 38" fill="none" xmlns="http://www.w3.org/2000/svg">
    <path opacity="0.4"
        d="M25.6345 3.16675H12.3662C6.60283 3.16675 3.16699 6.60258 3.16699 12.3659V25.6184C3.16699 31.3976 6.60283 34.8334 12.3662 34.8334H25.6187C31.382 34.8334 34.8178 31.3976 34.8178 25.6342V12.3659C34.8337 6.60258 31.3978 3.16675 25.6345 3.16675Z"
        fill="#01C38D" />
    <path
        d="M20.6786 19.0001L24.3203 15.3584C24.7795 14.8992 24.7795 14.1392 24.3203 13.6801C23.8611 13.2209 23.1011 13.2209 22.642 13.6801L19.0003 17.3217L15.3586 13.6801C14.8995 13.2209 14.1395 13.2209 13.6803 13.6801C13.2211 14.1392 13.2211 14.8992 13.6803 15.3584L17.322 19.0001L13.6803 22.6417C13.2211 23.1009 13.2211 23.8609 13.6803 24.3201C13.9178 24.5576 14.2186 24.6684 14.5195 24.6684C14.8203 24.6684 15.1211 24.5576 15.3586 24.3201L19.0003 20.6784L22.642 24.3201C22.8795 24.5576 23.1803 24.6684 23.4811 24.6684C23.782 24.6684 24.0828 24.5576 24.3203 24.3201C24.7795 23.8609 24.7795 23.1009 24.3203 22.6417L20.6786 19.0001Z"
        fill="#01C38D" />
</svg>