<svg width="13" height="13" viewBox="0 0 13 13" fill="none" xmlns="http://www.w3.org/2000/svg">
<g clip-path="url(#clip0_61_3305)">
<path d="M10.9471 3.38795C10.1372 3.30746 9.32732 3.2471 8.5124 3.20183V3.1968L8.40173 2.54285C8.32627 2.08005 8.21561 1.38586 7.0385 1.38586H5.72055C4.54847 1.38586 4.4378 2.04987 4.35732 2.53782L4.25168 3.1817C3.78385 3.21189 3.31603 3.24207 2.84821 3.28734L1.82201 3.38795C1.61074 3.40807 1.45983 3.59419 1.47995 3.80044C1.50007 4.00668 1.68116 4.15759 1.89244 4.13747L2.91863 4.03687C5.55454 3.77529 8.21058 3.87589 10.8767 4.1425C10.8918 4.1425 10.9018 4.1425 10.9169 4.1425C11.1081 4.1425 11.2741 3.99662 11.2942 3.80044C11.3093 3.59419 11.1584 3.40807 10.9471 3.38795Z" fill="#01C38D"/>
<path opacity="0.3991" d="M10.0215 4.85182C9.90078 4.72606 9.73478 4.65564 9.56375 4.65564H3.20537C3.03434 4.65564 2.86331 4.72606 2.74761 4.85182C2.63191 4.97758 2.56651 5.14862 2.57658 5.32468L2.88846 10.4858C2.94379 11.2504 3.01422 12.2062 4.76981 12.2062H7.99931C9.7549 12.2062 9.82533 11.2555 9.88066 10.4858L10.1925 5.32971C10.2026 5.14862 10.1372 4.97758 10.0215 4.85182Z" fill="#01C38D"/>
<path fill-rule="evenodd" clip-rule="evenodd" d="M5.16724 9.30867C5.16724 9.10031 5.33615 8.9314 5.54451 8.9314H7.21962C7.42799 8.9314 7.5969 9.10031 7.5969 9.30867C7.5969 9.51704 7.42799 9.68595 7.21962 9.68595H5.54451C5.33615 9.68595 5.16724 9.51704 5.16724 9.30867Z" fill="#01C38D"/>
<path fill-rule="evenodd" clip-rule="evenodd" d="M4.74963 7.29659C4.74963 7.08822 4.91855 6.91931 5.12691 6.91931H7.64209C7.85046 6.91931 8.01937 7.08822 8.01937 7.29659C8.01937 7.50495 7.85046 7.67387 7.64209 7.67387H5.12691C4.91855 7.67387 4.74963 7.50495 4.74963 7.29659Z" fill="#01C38D"/>
</g>
<defs>
<clipPath id="clip0_61_3305">
<rect width="12.0729" height="12.0729" fill="white" transform="translate(0.348145 0.75708)"/>
</clipPath>
</defs>
</svg>
