<svg width="13" height="13" viewBox="0 0 13 13" fill="none" xmlns="http://www.w3.org/2000/svg">
<path opacity="0.4" d="M10.9119 11.2126H1.85726C1.65101 11.2126 1.47998 11.0415 1.47998 10.8353C1.47998 10.629 1.65101 10.458 1.85726 10.458H10.9119C11.1182 10.458 11.2892 10.629 11.2892 10.8353C11.2892 11.0415 11.1182 11.2126 10.9119 11.2126Z" fill="#01C38D"/>
<path opacity="0.4" d="M9.91592 1.89629C8.94003 0.920396 7.98426 0.895245 6.98322 1.89629L6.37454 2.50496C6.32424 2.55526 6.30412 2.63575 6.32424 2.70618C6.70655 4.03922 7.77298 5.10566 9.10603 5.48797C9.12615 5.493 9.14627 5.49803 9.1664 5.49803C9.22173 5.49803 9.27203 5.47791 9.31228 5.43766L9.91592 4.82899C10.4139 4.33601 10.6554 3.85813 10.6554 3.37521C10.6604 2.87721 10.419 2.39429 9.91592 1.89629Z" fill="#01C38D"/>
<path d="M8.20059 5.94573C8.05471 5.8753 7.91386 5.80488 7.77804 5.72439C7.66737 5.659 7.56174 5.58857 7.4561 5.51311C7.37058 5.45778 7.26997 5.37729 7.1744 5.29681C7.16434 5.29178 7.12912 5.2616 7.08888 5.22135C6.92288 5.0805 6.73676 4.89941 6.57075 4.6982C6.55566 4.68814 6.53051 4.65292 6.4953 4.60765C6.44499 4.54728 6.35948 4.44668 6.28402 4.33098C6.22366 4.25552 6.15323 4.14486 6.08784 4.03419C6.00735 3.89837 5.93693 3.76255 5.8665 3.6217C5.79608 3.47079 5.74074 3.32491 5.69044 3.18909L2.53137 6.34816C2.46598 6.41355 2.40561 6.53931 2.39052 6.62483L2.11888 8.55145C2.06858 8.89352 2.16415 9.21546 2.37543 9.43177C2.55652 9.60783 2.80804 9.70341 3.07968 9.70341C3.14005 9.70341 3.20041 9.69838 3.26077 9.68832L5.19243 9.41668C5.28298 9.40159 5.40874 9.34122 5.4691 9.27583L8.62817 6.11676C8.48732 6.06645 8.3515 6.01112 8.20059 5.94573Z" fill="#01C38D"/>
</svg>
