<svg width="99" height="99" viewBox="0 0 99 99" fill="none" xmlns="http://www.w3.org/2000/svg">
<g clip-path="url(#clip0_45_5289)">
<path d="M78.377 33.0002C85.2115 33.0002 90.7519 27.4598 90.7519 20.6252C90.7519 13.7907 85.2115 8.25024 78.377 8.25024C71.5424 8.25024 66.002 13.7907 66.002 20.6252C66.002 27.4598 71.5424 33.0002 78.377 33.0002Z" fill="#696E79"/>
<path opacity="0.4" d="M78.373 39.188C68.143 39.188 59.8105 30.8555 59.8105 20.6255C59.8105 17.6555 60.5943 14.8917 61.8318 12.3755H31.018C16.7868 12.3755 8.24805 20.873 8.24805 35.1455V67.9392C8.24805 82.253 16.7868 90.7505 31.018 90.7505H63.8118C78.0843 90.7505 86.5818 82.253 86.5818 67.9805V37.1667C84.1068 38.4042 81.343 39.188 78.373 39.188Z" fill="#696E79"/>
</g>
<defs>
<clipPath id="clip0_45_5289">
<rect width="99" height="99" fill="white"/>
</clipPath>
</defs>
</svg>
