<svg width="44" height="44" viewBox="0 0 44 44" fill="none" xmlns="http://www.w3.org/2000/svg">
<rect width="44" height="44" rx="22" fill="#01C38D"/>
<path d="M13.064 17.51C13.896 15.8532 15.1724 14.4605 16.7504 13.4875C18.3285 12.5144 20.1461 11.9994 22 12C24.695 12 26.959 12.99 28.69 14.605L25.823 17.473C24.786 16.482 23.468 15.977 22 15.977C19.395 15.977 17.19 17.737 16.405 20.1C16.205 20.7 16.091 21.34 16.091 22C16.091 22.66 16.205 23.3 16.405 23.9C17.191 26.264 19.395 28.023 22 28.023C23.345 28.023 24.49 27.668 25.386 27.068C25.9054 26.726 26.3501 26.2822 26.6932 25.7635C27.0363 25.2448 27.2706 24.6619 27.382 24.05H22V20.182H31.418C31.536 20.836 31.6 21.518 31.6 22.227C31.6 25.273 30.51 27.837 28.618 29.577C26.964 31.105 24.7 32 22 32C20.6866 32.0005 19.386 31.7422 18.1725 31.2399C16.9591 30.7375 15.8565 30.0009 14.9278 29.0722C13.9991 28.1436 13.2625 27.041 12.7601 25.8275C12.2578 24.614 11.9995 23.3134 12 22C12 20.386 12.386 18.86 13.064 17.51Z" fill="white"/>
</svg>
