<svg width="48" height="49" viewBox="0 0 48 49" fill="none" xmlns="http://www.w3.org/2000/svg">
<g clip-path="url(#clip0_59_2577)">
<path opacity="0.4" d="M26 7.02026H14C7.16 7.02026 4.5 9.68026 4.5 16.5203V32.5203C4.5 37.1203 7 42.0203 14 42.0203H26C32.84 42.0203 35.5 39.3603 35.5 32.5203V16.5203C35.5 9.68026 32.84 7.02026 26 7.02026Z" fill="#01C38D"/>
<path d="M23 23.2798C25.0766 23.2798 26.76 21.5964 26.76 19.5198C26.76 17.4432 25.0766 15.7598 23 15.7598C20.9234 15.7598 19.24 17.4432 19.24 19.5198C19.24 21.5964 20.9234 23.2798 23 23.2798Z" fill="#01C38D"/>
<path d="M43.3 12.8598C42.48 12.4398 40.76 11.9598 38.42 13.5997L35.46 15.6797C35.48 15.9597 35.5 16.2197 35.5 16.5197V32.5197C35.5 32.8197 35.46 33.0798 35.46 33.3597L38.42 35.4397C39.66 36.3197 40.74 36.5998 41.6 36.5998C42.34 36.5998 42.92 36.3997 43.3 36.1997C44.12 35.7797 45.5 34.6397 45.5 31.7797V17.2797C45.5 14.4198 44.12 13.2798 43.3 12.8598Z" fill="#01C38D"/>
</g>
<defs>
<clipPath id="clip0_59_2577">
<rect width="48" height="48" fill="white" transform="translate(0 0.52002)"/>
</clipPath>
</defs>
</svg>
