<svg width="129" height="129" viewBox="0 0 129 129" fill="none" xmlns="http://www.w3.org/2000/svg">
    <path opacity="0.4"
        d="M94.4735 34.9914L22.7305 106.734C15.2628 101.987 12.3291 93.5059 12.3291 85.3448V42.6724C12.3291 24.43 19.4234 17.3357 37.6658 17.3357H69.6702C85.0856 17.3357 92.5532 22.403 94.4735 34.9914Z"
        fill="#696E79" />
    <path opacity="0.4"
        d="M95.0071 49.3401V85.3449C95.0071 85.7717 94.9538 86.0917 94.9538 86.4651C94.9538 86.8385 94.9005 87.2119 94.9005 87.5852H94.9538C94.3671 104.174 87.1661 110.682 69.6704 110.682H37.6661C36.3326 110.682 35.1057 110.628 33.8789 110.468L95.0071 49.3401Z"
        fill="#696E79" />
    <path opacity="0.4"
        d="M94.9004 87.5848C94.9004 87.2114 94.9537 86.838 94.9537 86.4646C95.0071 86.838 95.0071 87.2114 94.9537 87.5848H94.9004Z"
        fill="#696E79" />
    <path opacity="0.4"
        d="M94.9537 40.3792C95.0071 40.7525 95.0071 41.1793 94.9537 41.5526C94.9537 41.1793 94.9004 40.8059 94.9004 40.4325L94.9537 40.3792Z"
        fill="#696E79" />
    <path
        d="M121.677 44.6994V83.318C121.677 90.9456 117.997 93.9861 115.81 95.1062C114.796 95.6396 113.25 96.2264 111.276 96.2264C108.982 96.2264 106.102 95.4796 102.795 93.1326L94.9537 87.5852H94.9004C94.9004 87.2118 94.9537 86.8384 94.9537 86.465C94.9537 86.0917 95.0071 85.7716 95.0071 85.3449V49.3401L112.449 31.8977C113.89 32.0044 115.01 32.4311 115.81 32.9112C117.997 34.0313 121.677 37.0717 121.677 44.6994Z"
        fill="#696E79" />
    <path
        d="M116.45 11.894C114.85 10.2938 112.236 10.2938 110.636 11.894L12.2226 110.361C10.6224 111.961 10.6224 114.575 12.2226 116.175C13.0227 116.922 14.0362 117.348 15.103 117.348C16.1698 117.348 17.1833 116.922 17.9834 116.121L116.45 17.6548C118.104 16.0546 118.104 13.4942 116.45 11.894Z"
        fill="#696E79" />
</svg>