<svg width="16" height="16" viewBox="0 0 16 16" fill="none" xmlns="http://www.w3.org/2000/svg">
<g clip-path="url(#clip0_559_6448)">
<path opacity="0.4" d="M7.99975 11.5666C8.5999 11.5666 9.08642 11.0801 9.08642 10.48C9.08642 9.87983 8.5999 9.39331 7.99975 9.39331C7.3996 9.39331 6.91309 9.87983 6.91309 10.48C6.91309 11.0801 7.3996 11.5666 7.99975 11.5666Z" fill="#01C38D"/>
<path d="M11.0997 6.29321H4.89967C2.16634 6.29321 1.33301 7.12655 1.33301 9.85988V11.0999C1.33301 13.8332 2.16634 14.6665 4.89967 14.6665H11.0997C13.833 14.6665 14.6663 13.8332 14.6663 11.0999V9.85988C14.6663 7.12655 13.833 6.29321 11.0997 6.29321ZM7.99967 12.4932C6.88634 12.4932 5.98634 11.5865 5.98634 10.4799C5.98634 9.37321 6.88634 8.46655 7.99967 8.46655C9.11301 8.46655 10.013 9.37321 10.013 10.4799C10.013 11.5865 9.11301 12.4932 7.99967 12.4932Z" fill="#01C38D"/>
<path opacity="0.4" d="M4.74681 6.29992V5.51992C4.74681 3.56659 5.30014 2.26659 8.00014 2.26659C10.7001 2.26659 11.2535 3.56659 11.2535 5.51992V6.29992C11.5935 6.30659 11.9001 6.31992 12.1868 6.35992V5.51992C12.1868 3.71992 11.7535 1.33325 8.00014 1.33325C4.24681 1.33325 3.81348 3.71992 3.81348 5.51992V6.35325C4.09348 6.31992 4.40681 6.29992 4.74681 6.29992Z" fill="#01C38D"/>
</g>
<defs>
<clipPath id="clip0_559_6448">
<rect width="16" height="16" fill="white"/>
</clipPath>
</defs>
</svg>
