<svg width="107" height="107" viewBox="0 0 107 107" fill="none" xmlns="http://www.w3.org/2000/svg">
<path opacity="0.4" d="M72.1817 8.9165H34.8209C18.5926 8.9165 8.91797 18.5911 8.91797 34.8194V72.1357C8.91797 88.4086 18.5926 98.0832 34.8209 98.0832H72.1371C88.3655 98.0832 98.0401 88.4086 98.0401 72.1803V34.8194C98.0846 18.5911 88.4101 8.9165 72.1817 8.9165Z" fill="#696E79"/>
<path d="M30.6738 84.2622C28.8459 84.2622 27.3301 82.7464 27.3301 80.9184V71.6897C27.3301 69.8618 28.8459 68.3459 30.6738 68.3459C32.5017 68.3459 34.0176 69.8618 34.0176 71.6897V80.9184C34.0176 82.7909 32.5017 84.2622 30.6738 84.2622Z" fill="#696E79"/>
<path d="M53.502 84.2623C51.674 84.2623 50.1582 82.7465 50.1582 80.9186V62.4165C50.1582 60.5886 51.674 59.0728 53.502 59.0728C55.3299 59.0728 56.8457 60.5886 56.8457 62.4165V80.9186C56.8457 82.7911 55.3299 84.2623 53.502 84.2623Z" fill="#696E79"/>
<path d="M76.3281 84.2626C74.5002 84.2626 72.9844 82.7467 72.9844 80.9188V53.188C72.9844 51.3601 74.5002 49.8442 76.3281 49.8442C78.156 49.8442 79.6719 51.3601 79.6719 53.188V80.9188C79.6719 82.7913 78.2006 84.2626 76.3281 84.2626Z" fill="#696E79"/>
<path d="M79.6722 25.9473C79.6722 25.7244 79.5831 25.4569 79.5385 25.234C79.4939 25.0556 79.4493 24.8327 79.4047 24.6544C79.3156 24.4761 79.1818 24.3423 79.0927 24.164C78.9589 23.9856 78.8252 23.7627 78.6468 23.629C78.6022 23.5844 78.6022 23.5398 78.5577 23.5398C78.4239 23.4506 78.2902 23.4061 78.1564 23.3169C77.9781 23.1831 77.7552 23.0494 77.5322 22.9602C77.3093 22.8711 77.0864 22.8711 76.8635 22.8265C76.6852 22.7819 76.5514 22.7373 76.3731 22.7373H63.3102C61.4822 22.7373 59.9664 24.2531 59.9664 26.0811C59.9664 27.909 61.4822 29.4248 63.3102 29.4248H68.8831C58.2722 40.5706 44.8972 48.4173 29.8727 52.2069C28.0893 52.6527 26.9747 54.4806 27.4206 56.264C27.7772 57.7798 29.1593 58.8052 30.6752 58.8052C30.9427 58.8052 31.2102 58.7606 31.4777 58.7161C47.3939 54.7481 61.616 46.5002 72.9847 34.8194V39.144C72.9847 40.9719 74.5006 42.4877 76.3285 42.4877C78.1564 42.4877 79.6722 40.9719 79.6722 39.144V26.0811C79.6722 26.0365 79.6722 25.9919 79.6722 25.9473Z" fill="#696E79"/>
</svg>
