<svg width="24" height="24" viewBox="0 0 24 24" fill="none" xmlns="http://www.w3.org/2000/svg">
<path opacity="0.4" d="M16.19 2H7.81C4.17 2 2 4.17 2 7.81V16.18C2 19.83 4.17 22 7.81 22H16.18C19.82 22 21.99 19.83 21.99 16.19V7.81C22 4.17 19.83 2 16.19 2Z" fill="#01C38D"/>
<path d="M6.88 18.9C6.47 18.9 6.13 18.56 6.13 18.15V16.08C6.13 15.67 6.47 15.33 6.88 15.33C7.29 15.33 7.63 15.67 7.63 16.08V18.15C7.63 18.57 7.29 18.9 6.88 18.9Z" fill="#01C38D"/>
<path d="M12 18.9C11.59 18.9 11.25 18.56 11.25 18.15V14C11.25 13.59 11.59 13.25 12 13.25C12.41 13.25 12.75 13.59 12.75 14V18.15C12.75 18.57 12.41 18.9 12 18.9Z" fill="#01C38D"/>
<path d="M17.12 18.9001C16.71 18.9001 16.37 18.5601 16.37 18.1501V11.9301C16.37 11.5201 16.71 11.1801 17.12 11.1801C17.53 11.1801 17.87 11.5201 17.87 11.9301V18.1501C17.87 18.5701 17.54 18.9001 17.12 18.9001Z" fill="#01C38D"/>
<path d="M17.87 5.8201C17.87 5.7701 17.85 5.7101 17.84 5.6601C17.83 5.6201 17.82 5.5701 17.81 5.5301C17.79 5.4901 17.76 5.4601 17.74 5.4201C17.71 5.3801 17.68 5.3301 17.64 5.3001C17.63 5.2901 17.63 5.2801 17.62 5.2801C17.59 5.2601 17.56 5.2501 17.53 5.2301C17.49 5.2001 17.44 5.1701 17.39 5.1501C17.34 5.1301 17.29 5.1301 17.24 5.1201C17.2 5.1101 17.17 5.1001 17.13 5.1001H14.2C13.79 5.1001 13.45 5.4401 13.45 5.8501C13.45 6.2601 13.79 6.6001 14.2 6.6001H15.45C13.07 9.1001 10.07 10.8601 6.69998 11.7101C6.29998 11.8101 6.04998 12.2201 6.14998 12.6201C6.22998 12.9601 6.53998 13.1901 6.87998 13.1901C6.93998 13.1901 6.99998 13.1801 7.05998 13.1701C10.63 12.2801 13.82 10.4301 16.37 7.8101V8.7801C16.37 9.1901 16.71 9.5301 17.12 9.5301C17.53 9.5301 17.87 9.1901 17.87 8.7801V5.8501C17.87 5.8401 17.87 5.8301 17.87 5.8201Z" fill="#01C38D"/>
</svg>
