<svg width="11" height="11" viewBox="0 0 11 11" fill="none" xmlns="http://www.w3.org/2000/svg">
<path opacity="0.4" d="M3.6359 3.29728L7.11611 2.13592C8.67874 1.61504 9.52757 2.46774 9.01055 4.03036L7.8492 7.51058C7.06981 9.85259 5.78885 9.85259 5.00946 7.51058L4.66607 6.47654L3.63204 6.13315C1.29389 5.35763 1.29389 4.08052 3.6359 3.29728Z" fill="#01C38D"/>
<path d="M5.56836 5.48463L7.03838 4.01074L5.56836 5.48463Z" fill="#01C38D"/>
<path d="M5.56966 5.77433C5.49635 5.77433 5.42304 5.74732 5.36517 5.68944C5.25328 5.57755 5.25328 5.39235 5.36517 5.28046L6.83134 3.80658C6.94323 3.69468 7.12843 3.69468 7.24032 3.80658C7.35221 3.91847 7.35221 4.10367 7.24032 4.21556L5.77415 5.68944C5.71628 5.74346 5.64297 5.77433 5.56966 5.77433Z" fill="#01C38D"/>
</svg>
