<svg width="16" height="16" viewBox="0 0 16 16" fill="none" xmlns="http://www.w3.org/2000/svg">
<path opacity="0.4" d="M13.666 6.7935H11.7393C10.1593 6.7935 8.87268 5.50683 8.87268 3.92683V2.00016C8.87268 1.6335 8.57268 1.3335 8.20602 1.3335H5.37935C3.32602 1.3335 1.66602 2.66683 1.66602 5.04683V10.9535C1.66602 13.3335 3.32602 14.6668 5.37935 14.6668H10.6193C12.6727 14.6668 14.3327 13.3335 14.3327 10.9535V7.46016C14.3327 7.0935 14.0327 6.7935 13.666 6.7935Z" fill="white"/>
<path d="M10.5318 1.47366C10.2585 1.20032 9.78516 1.38698 9.78516 1.76698V4.09365C9.78516 5.06698 10.6118 5.87365 11.6185 5.87365C12.2518 5.88032 13.1318 5.88032 13.8852 5.88032C14.2652 5.88032 14.4652 5.43365 14.1985 5.16699C13.2385 4.20032 11.5185 2.46032 10.5318 1.47366Z" fill="white"/>
<path d="M9.83906 12.84C8.2724 12.9534 8.2724 15.22 9.83906 15.3334H13.5457C13.9924 15.3334 14.4324 15.1667 14.7591 14.8667C15.8591 13.9067 15.2724 11.9867 13.8257 11.8067C13.3057 8.68004 8.78573 9.86671 9.8524 12.8467" fill="white"/>
</svg>
