<svg width="26" height="20" viewBox="0 0 26 20" fill="none" xmlns="http://www.w3.org/2000/svg">
<mask id="mask0_561_7257" style="mask-type:alpha" maskUnits="userSpaceOnUse" x="0" y="0" width="26" height="20">
<rect width="26" height="20" rx="2" fill="white"/>
</mask>
<g mask="url(#mask0_561_7257)">
<path fill-rule="evenodd" clip-rule="evenodd" d="M0 0H26V20H0V0Z" fill="#F7FCFF"/>
<path fill-rule="evenodd" clip-rule="evenodd" d="M0 12.2223V13.889H26V12.2223H0Z" fill="#E31D1C"/>
<path fill-rule="evenodd" clip-rule="evenodd" d="M0 15.2777V16.9444H26V15.2777H0Z" fill="#E31D1C"/>
<path fill-rule="evenodd" clip-rule="evenodd" d="M0 6.11108V7.77775H26V6.11108H0Z" fill="#E31D1C"/>
<path fill-rule="evenodd" clip-rule="evenodd" d="M0 18.3334V20H26V18.3334H0Z" fill="#E31D1C"/>
<path fill-rule="evenodd" clip-rule="evenodd" d="M0 9.16663V10.8333H26V9.16663H0Z" fill="#E31D1C"/>
<path fill-rule="evenodd" clip-rule="evenodd" d="M0 0V1.66667H26V0H0Z" fill="#E31D1C"/>
<path fill-rule="evenodd" clip-rule="evenodd" d="M0 3.05554V4.72221H26V3.05554H0Z" fill="#E31D1C"/>
<rect width="16.25" height="10.8333" fill="#2E42A5"/>
<path fill-rule="evenodd" clip-rule="evenodd" d="M1.39887 2.44892L0.809092 2.87299L1.00821 2.11832L0.484375 1.64006H1.16857L1.39804 1.02417L1.66712 1.64006H2.25038L1.7921 2.11832L1.96952 2.87299L1.39887 2.44892ZM4.64887 2.44892L4.05909 2.87299L4.25821 2.11832L3.73437 1.64006H4.41857L4.64804 1.02417L4.91712 1.64006H5.50038L5.0421 2.11832L5.21952 2.87299L4.64887 2.44892ZM7.30909 2.87299L7.89887 2.44892L8.46952 2.87299L8.2921 2.11832L8.75038 1.64006H8.16712L7.89805 1.02417L7.66857 1.64006H6.98438L7.50821 2.11832L7.30909 2.87299ZM11.1489 2.44892L10.5591 2.87299L10.7582 2.11832L10.2344 1.64006H10.9186L11.148 1.02417L11.4171 1.64006H12.0004L11.5421 2.11832L11.7195 2.87299L11.1489 2.44892ZM0.809092 6.20633L1.39887 5.78225L1.96952 6.20633L1.7921 5.45165L2.25038 4.97339H1.66712L1.39804 4.3575L1.16857 4.97339H0.484375L1.00821 5.45165L0.809092 6.20633ZM4.64887 5.78225L4.05909 6.20633L4.25821 5.45165L3.73437 4.97339H4.41857L4.64804 4.3575L4.91712 4.97339H5.50038L5.0421 5.45165L5.21952 6.20633L4.64887 5.78225ZM7.30909 6.20633L7.89887 5.78225L8.46952 6.20633L8.2921 5.45165L8.75038 4.97339H8.16712L7.89805 4.3575L7.66857 4.97339H6.98438L7.50821 5.45165L7.30909 6.20633ZM11.1489 5.78225L10.5591 6.20633L10.7582 5.45165L10.2344 4.97339H10.9186L11.148 4.3575L11.4171 4.97339H12.0004L11.5421 5.45165L11.7195 6.20633L11.1489 5.78225ZM0.809092 9.53966L1.39887 9.11559L1.96952 9.53966L1.7921 8.78499L2.25038 8.30673H1.66712L1.39804 7.69084L1.16857 8.30673H0.484375L1.00821 8.78499L0.809092 9.53966ZM4.64887 9.11559L4.05909 9.53966L4.25821 8.78499L3.73437 8.30673H4.41857L4.64804 7.69084L4.91712 8.30673H5.50038L5.0421 8.78499L5.21952 9.53966L4.64887 9.11559ZM7.30909 9.53966L7.89887 9.11559L8.46952 9.53966L8.2921 8.78499L8.75038 8.30673H8.16712L7.89805 7.69084L7.66857 8.30673H6.98438L7.50821 8.78499L7.30909 9.53966ZM11.1489 9.11559L10.5591 9.53966L10.7582 8.78499L10.2344 8.30673H10.9186L11.148 7.69084L11.4171 8.30673H12.0004L11.5421 8.78499L11.7195 9.53966L11.1489 9.11559ZM13.8091 2.87299L14.3989 2.44892L14.9695 2.87299L14.7921 2.11832L15.2504 1.64006H14.6671L14.398 1.02417L14.1686 1.64006H13.4844L14.0082 2.11832L13.8091 2.87299ZM14.3989 5.78225L13.8091 6.20633L14.0082 5.45165L13.4844 4.97339H14.1686L14.398 4.3575L14.6671 4.97339H15.2504L14.7921 5.45165L14.9695 6.20633L14.3989 5.78225ZM13.8091 9.53966L14.3989 9.11559L14.9695 9.53966L14.7921 8.78499L15.2504 8.30673H14.6671L14.398 7.69084L14.1686 8.30673H13.4844L14.0082 8.78499L13.8091 9.53966ZM3.02387 4.11559L2.43409 4.53966L2.63321 3.78499L2.10938 3.30673H2.79357L3.02305 2.69084L3.29212 3.30673H3.87538L3.4171 3.78499L3.59452 4.53966L3.02387 4.11559ZM5.68409 4.53966L6.27387 4.11559L6.84452 4.53966L6.6671 3.78499L7.12538 3.30673H6.54212L6.27305 2.69084L6.04357 3.30673H5.35938L5.88321 3.78499L5.68409 4.53966ZM9.52387 4.11559L8.93409 4.53966L9.13321 3.78499L8.60937 3.30673H9.29357L9.52304 2.69084L9.79212 3.30673H10.3754L9.9171 3.78499L10.0945 4.53966L9.52387 4.11559ZM2.43409 7.87299L3.02387 7.44892L3.59452 7.87299L3.4171 7.11832L3.87538 6.64006H3.29212L3.02305 6.02417L2.79357 6.64006H2.10938L2.63321 7.11832L2.43409 7.87299ZM6.27387 7.44892L5.68409 7.87299L5.88321 7.11832L5.35938 6.64006H6.04357L6.27305 6.02417L6.54212 6.64006H7.12538L6.6671 7.11832L6.84452 7.87299L6.27387 7.44892ZM8.93409 7.87299L9.52387 7.44892L10.0945 7.87299L9.9171 7.11832L10.3754 6.64006H9.79212L9.52304 6.02417L9.29357 6.64006H8.60937L9.13321 7.11832L8.93409 7.87299ZM12.7739 4.11559L12.1841 4.53966L12.3832 3.78499L11.8594 3.30673H12.5436L12.773 2.69084L13.0421 3.30673H13.6254L13.1671 3.78499L13.3445 4.53966L12.7739 4.11559ZM12.1841 7.87299L12.7739 7.44892L13.3445 7.87299L13.1671 7.11832L13.6254 6.64006H13.0421L12.773 6.02417L12.5436 6.64006H11.8594L12.3832 7.11832L12.1841 7.87299Z" fill="#F7FCFF"/>
</g>
</svg>
